<svg aria-hidden="true" style="position: absolute; width: 0; height: 0; overflow: hidden;" version="1.1" xmlns="http://www.w3.org/2000/svg" xmlns:xlink="http://www.w3.org/1999/xlink">
<defs>
<symbol id="icon-product" viewBox="0 0 32 32">
<path d="M20 30.333h-8c-7.24 0-10.333-3.093-10.333-10.333v-8c0-7.24 3.093-10.333 10.333-10.333h8c7.24 0 10.333 3.093 10.333 10.333v8c0 7.24-3.093 10.333-10.333 10.333zM12 3.667c-6.147 0-8.333 2.187-8.333 8.333v8c0 6.147 2.187 8.333 8.333 8.333h8c6.147 0 8.333-2.187 8.333-8.333v-8c0-6.147-2.187-8.333-8.333-8.333h-8z"></path>
<path d="M16.001 17.44c-0.173 0-0.347-0.040-0.507-0.133l-7.067-4.080c-0.48-0.28-0.64-0.893-0.36-1.36 0.28-0.48 0.893-0.64 1.36-0.36l6.56 3.8 6.52-3.773c0.48-0.28 1.093-0.107 1.36 0.36s0.107 1.093-0.36 1.36l-7.013 4.053c-0.147 0.080-0.32 0.133-0.493 0.133z"></path>
<path d="M16 24.693c-0.547 0-1-0.453-1-1v-7.253c0-0.547 0.453-1 1-1s1 0.453 1 1v7.253c0 0.547-0.453 1-1 1z"></path>
<path d="M16 25c-0.773 0-1.533-0.173-2.147-0.507l-4.267-2.373c-1.28-0.707-2.267-2.4-2.267-3.867v-4.52c0-1.453 1-3.147 2.267-3.867l4.267-2.373c1.227-0.68 3.067-0.68 4.293 0l4.267 2.373c1.28 0.707 2.267 2.4 2.267 3.867v4.52c0 1.453-1 3.147-2.267 3.867l-4.267 2.373c-0.613 0.347-1.373 0.507-2.147 0.507zM16 9c-0.44 0-0.867 0.080-1.173 0.253l-4.267 2.373c-0.653 0.36-1.24 1.373-1.24 2.107v4.52c0 0.747 0.587 1.747 1.24 2.107l4.267 2.373c0.613 0.347 1.733 0.347 2.347 0l4.267-2.373c0.653-0.36 1.24-1.373 1.24-2.107v-4.52c0-0.747-0.587-1.747-1.24-2.107l-4.267-2.373c-0.307-0.173-0.733-0.253-1.173-0.253z"></path>
</symbol>
<symbol id="icon-promote" viewBox="0 0 32 32">
<path d="M16 30.334c-0.84 0-1.627-0.32-2.213-0.92l-2.027-2.027c-0.16-0.16-0.587-0.333-0.8-0.333h-2.88c-1.733 0-3.133-1.4-3.133-3.133v-2.88c0-0.213-0.173-0.64-0.333-0.8l-2.027-2.027c-0.587-0.587-0.92-1.373-0.92-2.213s0.32-1.627 0.92-2.213l2.027-2.027c0.16-0.16 0.333-0.587 0.333-0.8v-2.88c0-1.733 1.4-3.133 3.133-3.133h2.88c0.213 0 0.64-0.173 0.8-0.333l2.027-2.027c1.173-1.173 3.253-1.173 4.427 0l2.027 2.027c0.16 0.16 0.587 0.333 0.8 0.333h2.88c1.733 0 3.133 1.4 3.133 3.133v2.88c0 0.213 0.173 0.64 0.333 0.8l2.027 2.027c0.587 0.587 0.92 1.373 0.92 2.213s-0.32 1.627-0.92 2.213l-2.027 2.027c-0.16 0.16-0.333 0.587-0.333 0.8v2.88c0 1.733-1.4 3.133-3.133 3.133h-2.88c-0.213 0-0.64 0.173-0.8 0.333l-2.027 2.027c-0.587 0.6-1.373 0.92-2.213 0.92zM6.027 18.827c0.533 0.533 0.92 1.467 0.92 2.213v2.88c0 0.627 0.507 1.133 1.133 1.133h2.88c0.747 0 1.68 0.387 2.213 0.92l2.027 2.027c0.427 0.427 1.173 0.427 1.6 0l2.027-2.027c0.533-0.533 1.467-0.92 2.213-0.92h2.88c0.627 0 1.133-0.507 1.133-1.133v-2.88c0-0.747 0.387-1.68 0.92-2.213l2.027-2.027c0.213-0.213 0.333-0.493 0.333-0.8s-0.12-0.587-0.333-0.8l-2.027-2.027c-0.533-0.533-0.92-1.467-0.92-2.213v-2.88c0-0.627-0.507-1.133-1.133-1.133h-2.88c-0.747 0-1.68-0.387-2.213-0.92l-2.027-2.027c-0.427-0.427-1.173-0.427-1.6 0l-2.027 2.027c-0.533 0.533-1.467 0.92-2.213 0.92h-2.88c-0.627 0-1.133 0.507-1.133 1.133v2.88c0 0.747-0.387 1.68-0.92 2.213l-2.027 2.027c-0.213 0.213-0.333 0.493-0.333 0.8s0.12 0.587 0.333 0.8l2.027 2.027z"></path>
<path d="M20 21.333c-0.747 0-1.347-0.6-1.347-1.333s0.6-1.333 1.333-1.333c0.733 0 1.333 0.6 1.333 1.333s-0.587 1.333-1.32 1.333z"></path>
<path d="M12.013 13.333c-0.747 0-1.347-0.6-1.347-1.333s0.6-1.333 1.333-1.333c0.733 0 1.333 0.6 1.333 1.333s-0.587 1.333-1.32 1.333z"></path>
<path d="M11.999 20.999c-0.253 0-0.507-0.093-0.707-0.293-0.387-0.387-0.387-1.027 0-1.413l8-8c0.387-0.387 1.027-0.387 1.413 0s0.387 1.027 0 1.413l-8 8c-0.2 0.2-0.453 0.293-0.707 0.293z"></path>
</symbol>
<symbol id="icon-dashboard" viewBox="0 0 32 32">
<path d="M12 1.668c-3.467 0-6.111 0.697-7.873 2.459s-2.459 4.407-2.459 7.873v8c0 3.467 0.697 6.111 2.459 7.873s4.407 2.459 7.873 2.459h8c3.467 0 6.111-0.697 7.873-2.459s2.459-4.407 2.459-7.873v-8c0-3.467-0.697-6.111-2.459-7.873s-4.407-2.459-7.873-2.459zM12 3.668h8c3.2 0 5.221 0.635 6.459 1.873s1.873 3.259 1.873 6.459v8c0 3.2-0.635 5.221-1.873 6.459s-3.259 1.873-6.459 1.873h-8c-3.2 0-5.221-0.635-6.459-1.873s-1.873-3.259-1.873-6.459v-8c0-3.2 0.635-5.221 1.873-6.459s3.259-1.873 6.459-1.873z"></path>
<path d="M19.398 7.891c-1.105-0.28-2.272-0.269-3.371 0.033-1.055 0.29-2.054 0.853-2.879 1.678-1.587 1.587-2.034 3.787-1.646 5.846l-3.168 3.166c-0.006 0.006-0.012 0.013-0.018 0.020-0.521 0.549-0.746 1.123-0.623 1.93 0 0.001-0 0.001 0 0.002l0.211 1.582c0.001 0.006 0.001 0.013 0.002 0.020 0.156 1.017 0.879 1.795 1.955 1.932 0.001 0 0.001 0.002 0.002 0.002l1.578 0.209c0.777 0.114 1.399-0.064 1.965-0.66l3.076-3.064c0.361 0.074 0.719 0.173 1.086 0.186 1.745 0.059 3.511-0.589 4.838-1.912 0.004-0.001 0.008-0.003 0.012-0.004 2.541-2.556 2.542-6.722-0.006-9.254-0.863-0.858-1.908-1.429-3.014-1.709zM18.9 9.826c0.769 0.194 1.499 0.59 2.104 1.191 1.771 1.761 1.772 4.632-0.004 6.422-0.93 0.93-2.15 1.373-3.363 1.332-0.406-0.014-0.812-0.082-1.203-0.205-0.355-0.111-0.742-0.017-1.006 0.246l-3.453 3.439c-0.007 0.006-0.013 0.013-0.020 0.020 0.086-0.090-0.278 0.050-0.221 0.059-0.005-0.001-0.009-0.001-0.014-0.002l-1.602-0.213c-0.002 0-0.004 0-0.006 0 0.011 0.001-0.221-0.227-0.229-0.252-0-0-0.002-0.002-0.002-0.002l-0.209-1.58c-0.001-0.006-0.003-0.012-0.004-0.018 0.017 0.114 0.139-0.297 0.098-0.254l3.422-3.422c0.262-0.262 0.357-0.648 0.248-1.002-0.482-1.566-0.114-3.331 1.125-4.57 0.576-0.576 1.263-0.962 1.996-1.164 0.764-0.21 1.573-0.219 2.342-0.025z"></path>
<path d="M12.098 19.848c-0.184 0.182-0.299 0.434-0.299 0.713 0 0.274 0.11 0.523 0.289 0.703l1.133 1.146c0.181 0.184 0.433 0.298 0.712 0.298 0.275 0 0.523-0.111 0.704-0.29l-0 0c0.183-0.181 0.297-0.433 0.297-0.711 0-0.274-0.11-0.523-0.289-0.703l-1.133-1.146c-0.181-0.184-0.433-0.298-0.712-0.298-0.274 0-0.522 0.11-0.702 0.288l0-0z"></path>
<path d="M17.859 12.934c-0 0-0 0-0.001 0-0.736 0-1.333 0.597-1.333 1.333 0 0 0 0 0 0.001v-0c0.001 0.736 0.597 1.332 1.333 1.332 0 0 0 0 0.001 0h0.012c0 0 0 0 0.001 0 0.736 0 1.333-0.596 1.333-1.332v-0c0-0 0-0 0-0.001 0-0.736-0.597-1.333-1.333-1.333-0 0-0 0-0.001 0h0z"></path>
</symbol>
<symbol id="icon-help" viewBox="0 0 32 32">
<path d="M10.667 29.76c-0.373 0-0.76-0.093-1.107-0.28-0.76-0.4-1.227-1.2-1.227-2.053v-1.893c-4.027-0.413-6.667-3.373-6.667-7.613v-8c0-4.587 3.080-7.667 7.667-7.667h13.333c4.587 0 7.667 3.080 7.667 7.667v8c0 4.587-3.080 7.667-7.667 7.667h-5.027l-5.68 3.787c-0.387 0.253-0.84 0.387-1.293 0.387zM9.333 4.24c-3.44 0-5.667 2.227-5.667 5.667v8c0 3.44 2.227 5.667 5.667 5.667 0.547 0 1 0.453 1 1v2.84c0 0.173 0.107 0.253 0.173 0.293s0.2 0.080 0.347-0.013l5.933-3.947c0.16-0.107 0.36-0.173 0.56-0.173h5.333c3.44 0 5.667-2.227 5.667-5.667v-8c0-3.44-2.227-5.667-5.667-5.667h-13.347z"></path>
<path d="M16 16.147c-0.547 0-1-0.453-1-1v-0.28c0-1.547 1.133-2.307 1.56-2.6 0.493-0.333 0.653-0.56 0.653-0.907 0-0.667-0.547-1.213-1.213-1.213s-1.213 0.547-1.213 1.213c0 0.547-0.453 1-1 1s-1-0.453-1-1c0-1.773 1.44-3.213 3.213-3.213s3.213 1.44 3.213 3.213c0 1.52-1.12 2.28-1.533 2.56-0.52 0.347-0.68 0.573-0.68 0.947v0.28c0 0.56-0.453 1-1 1z"></path>
<path d="M16 19.467c-0.56 0-1-0.453-1-1s0.453-1 1-1c0.547 0 1 0.453 1 1s-0.44 1-1 1z"></path>
</symbol>
<symbol id="icon-setting" viewBox="0 0 32 32">
<path d="M16 30.173c-0.893 0-1.8-0.2-2.507-0.613l-7.333-4.227c-2.987-2.013-3.173-2.32-3.173-5.48v-7.707c0-3.16 0.173-3.467 3.107-5.453l7.387-4.267c1.4-0.813 3.6-0.813 5 0l7.36 4.24c2.987 2.013 3.173 2.32 3.173 5.48v7.693c0 3.16-0.173 3.467-3.107 5.453l-7.387 4.267c-0.72 0.413-1.627 0.613-2.52 0.613zM16 3.826c-0.56 0-1.107 0.107-1.493 0.333l-7.333 4.24c-2.173 1.467-2.173 1.467-2.173 3.747v7.693c0 2.28 0 2.28 2.227 3.787l7.28 4.2c0.787 0.453 2.213 0.453 3 0l7.333-4.24c2.16-1.467 2.16-1.467 2.16-3.747v-7.693c0-2.28 0-2.28-2.227-3.787l-7.28-4.2c-0.387-0.227-0.933-0.333-1.493-0.333z"></path>
<path d="M16 21c-2.76 0-5-2.24-5-5s2.24-5 5-5c2.76 0 5 2.24 5 5s-2.24 5-5 5zM16 13c-1.653 0-3 1.347-3 3s1.347 3 3 3c1.653 0 3-1.347 3-3s-1.347-3-3-3z"></path>
</symbol>
<symbol id="icon-customers" viewBox="0 0 32 32">
<path d="M20.001 30.333h-8c-1.76 0-3.227-0.173-4.467-0.547-0.453-0.133-0.747-0.573-0.72-1.040 0.333-3.987 4.373-7.12 9.187-7.12s8.84 3.12 9.187 7.12c0.040 0.48-0.253 0.907-0.72 1.040-1.24 0.373-2.707 0.547-4.467 0.547zM8.961 28.080c0.88 0.173 1.88 0.253 3.040 0.253h8c1.16 0 2.16-0.080 3.040-0.253-0.707-2.56-3.627-4.453-7.040-4.453s-6.333 1.893-7.040 4.453z"></path>
<path d="M12 1.668c-3.467 0-6.111 0.697-7.873 2.459s-2.459 4.407-2.459 7.873v8c0 2.621 0.384 4.747 1.346 6.418s2.523 2.804 4.527 3.371c0.082 0.024 0.176 0.038 0.273 0.038 0.522 0 0.951-0.4 0.996-0.911l0-0.004c0.239-2.834 3.278-5.285 7.191-5.285s6.949 2.451 7.189 5.285c0.045 0.514 0.474 0.915 0.996 0.915 0.097 0 0.191-0.014 0.28-0.040l-0.007 0.002c2.004-0.567 3.566-1.7 4.527-3.371s1.348-3.797 1.348-6.418v-8c0-3.467-0.699-6.111-2.461-7.873s-4.407-2.459-7.873-2.459h-0.002zM12 3.668h8.002c3.2 0 5.221 0.635 6.459 1.873s1.875 3.259 1.875 6.459v8c0 2.419-0.377 4.194-1.082 5.42-0.555 0.965-1.397 1.579-2.48 2.047-1.018-3.402-4.551-5.84-8.771-5.84s-7.756 2.437-8.773 5.84c-1.083-0.468-1.925-1.082-2.481-2.047-0.705-1.226-1.080-3-1.080-5.42v-8c0-3.2 0.635-5.221 1.873-6.459s3.259-1.873 6.459-1.873zM16 8.332c-3.179 0-5.773 2.595-5.773 5.773s2.591 5.787 5.773 5.787c3.182 0 5.773-2.608 5.773-5.787s-2.595-5.773-5.773-5.773zM16 10.332c2.101 0 3.773 1.672 3.773 3.773s-1.676 3.787-3.773 3.787c-2.098 0-3.773-1.686-3.773-3.787s1.672-3.773 3.773-3.773z"></path>
<path d="M16 19.893c-3.187 0-5.773-2.6-5.773-5.787s2.587-5.773 5.773-5.773c3.187 0 5.773 2.587 5.773 5.773s-2.587 5.787-5.773 5.787zM16 10.333c-2.080 0-3.773 1.693-3.773 3.773 0 2.093 1.693 3.787 3.773 3.787s3.773-1.693 3.773-3.787c0-2.080-1.693-3.773-3.773-3.773z"></path>
</symbol>
<symbol id="icon-income" viewBox="0 0 32 32">
<path d="M4.803 21.494c-0.548 0-0.992 0.44-1 0.986v2.708c0 2.918 2.674 5.148 5.771 5.148s5.762-2.235 5.762-5.148v-2.707c-0.008-0.546-0.453-0.986-1-0.986s-0.992 0.44-1 0.985v0.001c0 0.828-0.362 1.504-1.023 2.037s-1.633 0.883-2.738 0.883c-1.115 0-2.089-0.348-2.75-0.879s-1.021-1.205-1.021-2.041c-0.008-0.546-0.452-0.986-1-0.986v0zM13.059 26.35c-0.543 1.137-1.851 1.986-3.484 1.986-1.632 0-2.947-0.848-3.494-1.982 0.996 0.642 2.181 1.047 3.494 1.047 1.309 0 2.491-0.408 3.484-1.051z"></path>
<path d="M9.545 13.68c-1.549 0-2.972 0.533-4.031 1.461-1.040 0.91-1.729 2.215-1.728 3.672 0 0.853 0.244 1.652 0.65 2.328 0.004 0.010 0.005 0.013 0.006 0.016l-0.002-0.007c1.006 1.636 2.957 2.582 5.119 2.582 2.158 0 4.116-0.934 5.121-2.586-0.001 0.002 0-0 0.002-0.002l0.002-0.004c0.406-0.676 0.648-1.474 0.648-2.328-0 0-0.001 0-0.001 0s-0.001 0-0.001 0h0v-0.002c-0.001-1.453-0.686-2.777-1.768-3.68-1.051-0.903-2.465-1.451-4.018-1.451zM9.545 15.68c1.084 0 2.041 0.385 2.721 0.971 0.004 0.004 0.008 0.008 0.012 0.012l0 0c0.675 0.562 1.053 1.313 1.053 2.15 0.001 0.001 0.001 0.001 0.002 0.002l0 0c-0 0.478-0.13 0.904-0.363 1.293-0.569 0.932-1.836 1.625-3.41 1.625-1.57 0-2.843-0.706-3.412-1.629-0-0.001-0.002-0.001-0.002-0.002-0.231-0.387-0.359-0.814-0.359-1.289 0-0.837 0.377-1.582 1.045-2.166 0-0 0.001-0.001 0.002-0.002l0-0c0.675-0.592 1.622-0.965 2.713-0.965z"></path>
<path d="M9.574 13.666c-3.108 0-5.771 2.233-5.771 5.146v3.668c0 1.454 0.708 2.738 1.773 3.594s2.476 1.326 3.998 1.326c1.52 0 2.929-0.467 3.992-1.322s1.77-2.141 1.77-3.598v-3.668c0-1.457-0.685-2.772-1.729-3.686-0.002-0.002-0.004-0.004-0.006-0.006l-0-0c-1.052-0.906-2.471-1.455-4.027-1.455zM9.574 15.666c1.083 0 2.039 0.384 2.719 0.969 0.001 0.001 0.001 0.001 0.002 0.002 0.659 0.579 1.041 1.343 1.041 2.176v3.668c0 0.836-0.363 1.51-1.023 2.041s-1.631 0.879-2.738 0.879c-1.105 0-2.080-0.351-2.744-0.885s-1.027-1.209-1.027-2.035v-3.668c0-1.673 1.6-3.146 3.771-3.146z"></path>
<path d="M25.227 12.268c-1.004 0-1.947 0.403-2.625 1.096-0.76 0.747-1.197 1.826-1.090 2.969 0.171 2 1.95 3.402 3.875 3.402h2.613c0.015-0.001 0.028-0.001 0.040-0.002l-0.003 0c1.262-0.046 2.295-1.093 2.295-2.359v-2.746c0-0.001-0.002-0.001-0.002-0.002-0.003-1.264-1.034-2.31-2.295-2.355-0.009-0.001-0.021-0.001-0.033-0.002l-0.002-0zM25.227 14.268h2.738c0.231 0.008 0.367 0.161 0.367 0.361v2.744c0 0.199-0.139 0.353-0.369 0.361h-2.576c-0.953 0-1.81-0.701-1.883-1.576-0.002-0.010-0.002-0.014-0.003-0.018l0.001 0.006c-0.051-0.531 0.151-1.020 0.504-1.363 0.006-0.006 0.012-0.012 0.017-0.017l0-0c0.307-0.316 0.718-0.498 1.203-0.498z"></path>
<path d="M9.334 3.666c-0.415 0-0.819 0.031-1.213 0.090-3.828 0.485-6.453 3.55-6.453 7.576v2.668c0 0.552 0.448 1 1 1v0c0.552 0 1-0.448 1-1v0-2.668c0-3.225 1.743-5.221 4.711-5.594 0.014-0.002 0.023-0.003 0.031-0.005l-0.006 0.001c0.295-0.045 0.605-0.068 0.93-0.068h12c0.322 0 0.6 0.013 0.834 0.053 0.011 0.002 0.028 0.005 0.046 0.007l0.005 0.001c3.005 0.349 4.783 2.359 4.783 5.605v0.934h-1.773c-1.004 0-1.947 0.404-2.625 1.096-0.759 0.746-1.196 1.823-1.090 2.965 0.169 2.002 1.949 3.406 3.875 3.406h1.613v0.932c0 1.778-0.576 3.162-1.541 4.127s-2.349 1.541-4.127 1.541h-3.332c-0.552 0-1 0.448-1 1v0c0 0.552 0.448 1 1 1v0h3.332c2.222 0 4.172-0.758 5.541-2.127s2.127-3.319 2.127-5.541v-1.932c-0-0.552-0.448-1-1-1h-2.613c-0.953 0-1.812-0.701-1.885-1.576 0-0.002 0-0.004 0-0.006s0-0.004-0-0.006v0c-0.051-0.531 0.148-1.018 0.502-1.363 0.008-0.007 0.014-0.012 0.020-0.018l-0.001 0.001c0.307-0.316 0.718-0.498 1.203-0.498h2.773c0.552-0 1-0.448 1-1v0-1.934c0-4.056-2.674-7.133-6.543-7.588-0.391-0.062-0.766-0.078-1.125-0.078z"></path>
</symbol>
<symbol id="icon-arrow" viewBox="0 0 19 32">
<path d="M3.2 0c0 0 0 0-0 0-0.884 0-1.684 0.358-2.263 0.937v0c-0.579 0.579-0.937 1.379-0.937 2.263s0.358 1.684 0.937 2.263l10.537 10.537-10.537 10.537c-0.579 0.579-0.937 1.379-0.937 2.263s0.358 1.684 0.937 2.263v0c0.579 0.579 1.379 0.937 2.263 0.937s1.684-0.358 2.263-0.937l12.8-12.8c0.579-0.579 0.937-1.379 0.937-2.263s-0.358-1.684-0.937-2.263l-12.8-12.8c-0.579-0.579-1.379-0.937-2.263-0.937 0 0 0 0-0 0v0z"></path>
</symbol>
<symbol id="icon-search" viewBox="0 0 32 32">
<path   d="M14.667 2.667c-2.488 0-4.813 0.763-6.732 2.065-3.18 2.158-5.268 5.812-5.268 9.935 0 6.612 5.388 12 12 12s12-5.388 12-12c0-6.612-5.388-12-12-12zM14.667 5.333c5.17 0 9.333 4.163 9.333 9.333s-4.163 9.333-9.333 9.333c-5.17 0-9.333-4.163-9.333-9.333 0-3.225 1.625-6.050 4.099-7.729 1.493-1.013 3.289-1.604 5.234-1.604z"></path>
<path   d="M21.258 21.258c-0.241 0.241-0.39 0.575-0.39 0.943s0.149 0.701 0.39 0.943l5.799 5.799c0.241 0.241 0.575 0.39 0.943 0.39s0.701-0.149 0.943-0.39v0c0.241-0.241 0.39-0.575 0.39-0.943s-0.149-0.701-0.39-0.943l-5.799-5.799c-0.241-0.241-0.575-0.39-0.943-0.39s-0.701 0.149-0.943 0.39v0z"></path>
</symbol>
</defs>
</svg>
